<mxfile host="app.diagrams.net" modified="2023-05-07T20:32:11.783Z" agent="Mozilla/5.0 (Windows NT 10.0; Win64; x64) AppleWebKit/537.36 (KHTML, like Gecko) Chrome/112.0.0.0 Safari/537.36" etag="43ZUzuP1on6RkqzjIfEv" version="21.1.4" type="github">
  <diagram name="Página-1" id="bSJGP8Rl3pwdWKhk3Nbw">
    <mxGraphModel dx="880" dy="484" grid="1" gridSize="10" guides="1" tooltips="1" connect="1" arrows="1" fold="1" page="1" pageScale="1" pageWidth="827" pageHeight="1169" math="0" shadow="0">
      <root>
        <mxCell id="0" />
        <mxCell id="1" parent="0" />
        <mxCell id="TybLUOuc99CVGpNBgaMz-9" value="" style="rounded=0;whiteSpace=wrap;html=1;fillColor=#f5f5f5;gradientColor=#b3b3b3;strokeColor=#666666;" parent="1" vertex="1">
          <mxGeometry x="13" y="40" width="807" height="460" as="geometry" />
        </mxCell>
        <mxCell id="TybLUOuc99CVGpNBgaMz-1" value="Demo" style="html=1;shadow=0;dashed=0;fontSize=16;align=left;spacing=15;fillColor=none;strokeColor=none;" parent="1" vertex="1">
          <mxGeometry x="250" y="50" width="563" height="60" as="geometry" />
        </mxCell>
        <mxCell id="TybLUOuc99CVGpNBgaMz-2" value="Precios" style="fillColor=none;strokeColor=none;fontSize=14;fontColor=#080808;align=center;" parent="TybLUOuc99CVGpNBgaMz-1" vertex="1">
          <mxGeometry width="70" height="40" relative="1" as="geometry">
            <mxPoint x="70" y="10" as="offset" />
          </mxGeometry>
        </mxCell>
        <mxCell id="TybLUOuc99CVGpNBgaMz-3" value="Características Chatbot " style="fillColor=none;strokeColor=none;fontSize=14;fontColor=#9A9DA0;align=center;" parent="TybLUOuc99CVGpNBgaMz-1" vertex="1">
          <mxGeometry width="160" height="40" relative="1" as="geometry">
            <mxPoint x="157" y="10" as="offset" />
          </mxGeometry>
        </mxCell>
        <mxCell id="TybLUOuc99CVGpNBgaMz-6" value="Login" style="html=1;shadow=0;dashed=0;shape=mxgraph.bootstrap.rrect;rSize=5;fontSize=14;fontColor=#1CA5B8;strokeColor=#1CA5B8;fillColor=none;" parent="TybLUOuc99CVGpNBgaMz-1" vertex="1">
          <mxGeometry x="1" width="91" height="40" relative="1" as="geometry">
            <mxPoint x="-101" y="10" as="offset" />
          </mxGeometry>
        </mxCell>
        <mxCell id="TybLUOuc99CVGpNBgaMz-12" value="Video Demo" style="html=1;whiteSpace=wrap;strokeColor=none;fillColor=#0079D6;labelPosition=center;verticalLabelPosition=middle;verticalAlign=top;align=center;fontSize=12;outlineConnect=0;spacingTop=-6;fontColor=#FFFFFF;sketch=0;shape=mxgraph.sitemap.video;" parent="1" vertex="1">
          <mxGeometry x="214" y="250" width="400" height="200" as="geometry" />
        </mxCell>
        <mxCell id="TybLUOuc99CVGpNBgaMz-16" value="Power by PortalUp&lt;br&gt;" style="text;html=1;align=center;verticalAlign=middle;resizable=0;points=[];autosize=1;strokeColor=none;fillColor=none;flipH=1;flipV=1;" parent="1" vertex="1">
          <mxGeometry x="350" y="470" width="120" height="30" as="geometry" />
        </mxCell>
        <mxCell id="TybLUOuc99CVGpNBgaMz-17" value="Logo" style="text;html=1;align=center;verticalAlign=middle;resizable=0;points=[];autosize=1;strokeColor=none;fillColor=none;fontSize=16;" parent="1" vertex="1">
          <mxGeometry x="60" y="65" width="60" height="30" as="geometry" />
        </mxCell>
        <mxCell id="TybLUOuc99CVGpNBgaMz-18" value="Llevamos la Atención al Cliente a un nivel superior desde&amp;nbsp;&lt;font style=&quot;border-color: var(--border-color);&quot; color=&quot;#4c0099&quot;&gt;tu página web&amp;nbsp;&lt;br&gt;&lt;/font&gt;con Chatbots personalizados, entrenados e integrados con Inteligencias Artificial&lt;br&gt;&amp;nbsp;como ChatGPT" style="text;html=1;align=center;verticalAlign=middle;resizable=0;points=[];autosize=1;strokeColor=none;fillColor=none;fontFamily=Helvetica;fontStyle=1;horizontal=1;fontSize=18;shadow=0;rounded=0;glass=0;" parent="1" vertex="1">
          <mxGeometry x="60" y="160" width="720" height="80" as="geometry" />
        </mxCell>
        <mxCell id="kCEi4esk9JjT-v6ZgHjA-2" value="" style="image;image=img/lib/atlassian/Hipchat_Logo.svg;html=1;direction=east;flipH=0;flipV=0;" parent="1" vertex="1">
          <mxGeometry x="760" y="410" width="40" height="40" as="geometry" />
        </mxCell>
        <mxCell id="kCEi4esk9JjT-v6ZgHjA-3" value="" style="image;image=img/lib/atlassian/Hipchat_Logo.svg;html=1;" parent="1" vertex="1">
          <mxGeometry x="25" y="53" width="40" height="42" as="geometry" />
        </mxCell>
      </root>
    </mxGraphModel>
  </diagram>
</mxfile>
